<svg width="17" height="18" viewBox="0 0 17 18" fill="none" xmlns="http://www.w3.org/2000/svg">
<path d="M12.4886 17.1685C13.0976 17.1685 13.0106 17.9079 13.0106 17.9079H5.09475C5.09475 17.9079 5.00776 17.1685 5.61667 17.1685C6.18209 17.1685 6.31257 16.9076 6.31257 16.6466L6.26907 14.4719C3.18103 15.1678 2.52863 13.2541 2.52863 13.2541C2.00671 11.9493 1.31081 11.6449 1.31081 11.6449C0.266968 10.949 1.35431 10.949 1.35431 10.949C2.48514 11.036 3.09405 12.0798 3.09405 12.0798C4.0509 13.776 5.66016 13.2976 6.31257 13.0367C6.39955 12.2973 6.70401 11.8188 7.00846 11.5144C4.52933 11.2534 1.96321 10.2966 1.96321 6.0342C1.96321 4.81638 2.39815 3.81603 3.09405 3.03315C2.96357 2.77219 2.61562 1.64136 3.22453 0.119085C3.22453 0.119085 4.13789 -0.185369 6.26907 1.24992C8.0958 0.727994 10.0095 0.727994 11.8362 1.24992C13.9674 -0.185369 14.8808 0.119085 14.8808 0.119085C15.4897 1.64136 15.1417 2.77219 15.0113 3.03315C15.7072 3.81603 16.1421 4.81638 16.1421 6.0342C16.1421 10.2966 13.5325 11.2534 11.0534 11.5144C11.4883 11.8623 11.8362 12.5582 11.8362 13.6021L11.7927 16.6466C11.7927 16.9076 11.9232 17.1685 12.4886 17.1685Z" fill="white"/>
</svg>
