<svg width="20" height="10" viewBox="0 0 20 10" fill="none" xmlns="http://www.w3.org/2000/svg">
<path d="M18.6188 0.678125C18.7452 0.2875 18.6188 0 18.0104 0H15.9975C15.4848 0 15.249 0.246875 15.1225 0.521875C15.1225 0.521875 14.0972 2.80625 12.6482 4.2875C12.1799 4.71562 11.9646 4.85313 11.7083 4.85313C11.5819 4.85313 11.387 4.71562 11.387 4.325V0.678125C11.387 0.209375 11.2435 0 10.8197 0H7.65498C7.33372 0 7.14233 0.21875 7.14233 0.421875C7.14233 0.865625 7.86687 0.96875 7.94206 2.21875V4.93125C7.94206 5.525 7.82586 5.63437 7.56954 5.63437C6.88601 5.63437 5.22503 3.34063 4.24075 0.715625C4.04253 0.20625 3.84772 0 3.33165 0H1.31866C0.744496 0 0.628296 0.246875 0.628296 0.521875C0.628296 1.00937 1.31183 3.43125 3.81013 6.63125C5.47452 8.81563 7.81902 10 9.95164 10C11.2333 10 11.3905 9.7375 11.3905 9.28438C11.3905 7.19688 11.2743 7 11.9168 7C12.2141 7 12.7268 7.1375 13.9229 8.19063C15.29 9.44063 15.5156 10 16.2811 10H18.2941C18.8683 10 19.1588 9.7375 18.9913 9.21875C18.6085 8.12813 16.0214 5.88438 15.9052 5.73438C15.6078 5.38438 15.6933 5.22813 15.9052 4.91563C15.9086 4.9125 18.3659 1.75 18.6188 0.678125Z" fill="#FFFEFE"/>
</svg>
